<svg width="18" height="18" viewBox="0 0 18 18" fill="none" xmlns="http://www.w3.org/2000/svg">
<path d="M3.02406 5.83047C2.73898 5.83047 2.4971 5.93862 2.29827 6.15493C2.09944 6.37124 2 6.6308 2 6.93374V11.5851C2 11.8957 2.09941 12.1586 2.29827 12.3749C2.4971 12.5912 2.73898 12.6994 3.02406 12.6994C3.30893 12.6994 3.54935 12.5913 3.74509 12.3749C3.94045 12.1586 4.0384 11.8957 4.0384 11.5851V6.93374C4.0384 6.63076 3.93899 6.37124 3.74013 6.15493C3.54127 5.93862 3.30253 5.83047 3.02406 5.83047ZM11.2572 1.6549L11.9632 0.238073C12.0095 0.144273 11.993 0.0723444 11.9136 0.0217666C11.8273 -0.0218462 11.761 0.000253147 11.7147 0.0865023L10.9989 1.51466C10.369 1.21168 9.70275 1.05991 9.00021 1.05991C8.29752 1.05991 7.63123 1.21171 7.00157 1.51466L6.28568 0.0865023C6.23916 0.000253147 6.17289 -0.0216509 6.08685 0.0217666C6.00721 0.0725723 5.99073 0.144273 6.03725 0.238073L6.74326 1.6549C6.02738 2.05207 5.45722 2.60521 5.03299 3.31551C4.60877 4.0262 4.39657 4.80283 4.39657 5.64677H13.5939C13.5939 4.80303 13.3816 4.02636 12.9574 3.31551C12.5332 2.60521 11.9663 2.05207 11.2572 1.6549ZM7.17551 3.7157C7.09916 3.79896 7.00797 3.84039 6.90197 3.84039C6.79577 3.84039 6.70644 3.79896 6.63356 3.7157C6.56068 3.63284 6.52424 3.53403 6.52424 3.41832C6.52424 3.30301 6.56068 3.204 6.63356 3.12094C6.70644 3.03808 6.79598 2.99665 6.90197 2.99665C7.00797 2.99665 7.09916 3.03808 7.17551 3.12094C7.25168 3.2042 7.28994 3.30301 7.28994 3.41832C7.28973 3.53383 7.2515 3.63284 7.17551 3.7157ZM11.3665 3.7157C11.2934 3.79896 11.2039 3.84039 11.0981 3.84039C10.9918 3.84039 10.9007 3.79896 10.8245 3.7157C10.7482 3.63284 10.7101 3.53403 10.7101 3.41832C10.7101 3.30301 10.7482 3.204 10.8245 3.12094C10.9007 3.03808 10.9918 2.99665 11.0981 2.99665C11.2041 2.99665 11.2934 3.03808 11.3665 3.12094C11.4394 3.2042 11.4758 3.30301 11.4758 3.41832C11.4758 3.53383 11.4394 3.63284 11.3665 3.7157ZM4.43606 13.2402C4.43606 13.5722 4.54205 13.8533 4.75408 14.084C4.96628 14.3146 5.22464 14.4299 5.52965 14.4299H6.26549L6.27557 16.8857C6.27557 17.1958 6.37499 17.4592 6.57381 17.6755C6.77264 17.8918 7.01141 18 7.2897 18C7.5746 18 7.81663 17.8918 8.01549 17.6755C8.21435 17.4592 8.31376 17.1959 8.31376 16.8857V14.4302H9.68588V16.8857C9.68588 17.1958 9.78526 17.4592 9.98412 17.6755C10.183 17.8918 10.4248 18 10.7099 18C10.9948 18 11.2368 17.8918 11.4357 17.6755C11.6346 17.4592 11.7339 17.1959 11.7339 16.8857V14.4302H12.4797C12.778 14.4302 13.033 14.3148 13.2454 14.0842C13.4574 13.8535 13.5635 13.5724 13.5635 13.2404V6.03581H4.43606V13.2402ZM14.976 5.83047C14.6975 5.83047 14.4589 5.93703 14.2601 6.14956C14.0612 6.36248 13.9618 6.62403 13.9618 6.93374V11.5851C13.9618 11.8957 14.0612 12.1586 14.2601 12.3749C14.4589 12.5913 14.6976 12.6994 14.976 12.6994C15.2609 12.6994 15.5029 12.5913 15.7018 12.3749C15.9006 12.1586 16 11.8957 16 11.5851V6.93374C16 6.62399 15.9006 6.36248 15.7018 6.14956C15.5029 5.93703 15.2609 5.83047 14.976 5.83047Z" fill="#AAC148"/>
</svg>
