<svg width="18" height="18" viewBox="0 0 18 18" fill="none" xmlns="http://www.w3.org/2000/svg">
<path d="M13.7051 9.45511C13.6977 8.14416 14.3151 7.15469 15.5648 6.42599C14.8656 5.4651 13.8092 4.93643 12.4145 4.83284C11.094 4.73282 9.6509 5.57226 9.12274 5.57226C8.56483 5.57226 7.28534 4.86856 6.28108 4.86856C4.20563 4.90071 2 6.45814 2 9.62657C2 10.5625 2.17853 11.5293 2.5356 12.5271C3.01169 13.838 4.73007 17.0529 6.52285 16.9993C7.46015 16.9779 8.12221 16.3599 9.34219 16.3599C10.525 16.3599 11.1387 16.9993 12.1838 16.9993C13.9915 16.9743 15.5462 14.0524 16 12.7378C13.5749 11.6412 13.7051 9.52298 13.7051 9.45511ZM11.5999 3.58976C12.6153 2.4324 12.5223 1.37864 12.4926 1C11.5962 1.05001 10.5584 1.58582 9.96706 2.24666C9.31615 2.95393 8.93305 3.82909 9.01488 4.81498C9.98565 4.88642 10.8709 4.40776 11.5999 3.58976Z" fill="#5E666E"/>
</svg>
